<?xml version="1.0" encoding="UTF-8"?>
<!DOCTYPE svg PUBLIC "-//W3C//DTD SVG 1.1//EN" "http://www.w3.org/Graphics/SVG/1.1/DTD/svg11.dtd">
<svg xmlns="http://www.w3.org/2000/svg" version="1.1" width="276px" height="276px" style="shape-rendering:geometricPrecision; text-rendering:geometricPrecision; image-rendering:optimizeQuality; fill-rule:evenodd; clip-rule:evenodd" xmlns:xlink="http://www.w3.org/1999/xlink">
<g><path style="opacity:0.012" fill="#fd5e53" d="M 162.5,42.5 C 164.047,43.7682 165.047,45.4348 165.5,47.5C 165.167,47.5 164.833,47.5 164.5,47.5C 163.814,46.1516 162.814,44.985 161.5,44C 162.056,43.6174 162.389,43.1174 162.5,42.5 Z"/></g>
<g><path style="opacity:0.129" fill="#0a0606" d="M 166.5,49.5 C 171.522,51.853 174.355,55.853 175,61.5C 175.667,64.1667 175.667,66.8333 175,69.5C 173.083,72.9146 171.75,76.5813 171,80.5C 166.196,85.9733 163.196,92.3067 162,99.5C 160.824,101.196 159.657,102.862 158.5,104.5C 153.441,103.054 148.441,101.721 143.5,100.5C 143.489,98.9826 142.823,97.8159 141.5,97C 135.432,93.6014 129.932,89.4347 125,84.5C 123.441,82.7834 122.608,80.7834 122.5,78.5C 126.536,80.1881 130.536,81.8548 134.5,83.5C 134.5,84.5 134.5,85.5 134.5,86.5C 135.5,86.5 136.5,86.5 137.5,86.5C 137.661,93.1528 140.994,95.3195 147.5,93C 148.973,92.2904 149.64,91.1238 149.5,89.5C 153.323,81.8485 157.656,74.3485 162.5,67C 163.322,64.5661 163.656,62.0661 163.5,59.5C 164.5,59.5 165.5,59.5 166.5,59.5C 166.5,56.1667 166.5,52.8333 166.5,49.5 Z"/></g>
<g><path style="opacity:0.976" fill="#fcb1ab" d="M 162.5,42.5 C 162.389,43.1174 162.056,43.6174 161.5,44C 162.814,44.985 163.814,46.1516 164.5,47.5C 162.959,52.3638 162.292,57.3638 162.5,62.5C 161.5,62.5 160.5,62.5 159.5,62.5C 157.346,69.1237 154.513,75.4571 151,81.5C 150.433,84.1677 149.933,86.8344 149.5,89.5C 144.464,90.6116 140.798,88.9449 138.5,84.5C 134.154,83.1798 130.821,80.6798 128.5,77C 126.071,76.2967 123.738,76.4634 121.5,77.5C 115.261,72.3364 113.094,65.6697 115,57.5C 116.5,55.8333 118,54.1667 119.5,52.5C 125.807,51.6694 132.141,51.1694 138.5,51C 143.199,43.6521 149.866,39.9855 158.5,40C 159.693,41.0946 161.027,41.928 162.5,42.5 Z"/></g>
<g><path style="opacity:0.971" fill="#fdb3ac" d="M 97.5,62.5 C 96.8826,62.6107 96.3826,62.944 96,63.5C 95.81,73.88 95.31,84.2133 94.5,94.5C 92.771,95.5968 91.1044,96.7635 89.5,98C 85.5138,98.4988 81.5138,98.6655 77.5,98.5C 72.737,98.2256 68.0704,98.559 63.5,99.5C 58.2684,93.9327 56.1017,87.2661 57,79.5C 59.36,75.4034 62.86,72.9034 67.5,72C 70.8892,69.381 72.3892,65.881 72,61.5C 76.4695,54.8151 82.6362,52.6485 90.5,55C 93.7168,56.7155 96.0502,59.2155 97.5,62.5 Z"/></g>
<g><path style="opacity:0.112" fill="#0a0606" d="M 98.5,64.5 C 104.728,68.898 108.228,74.898 109,82.5C 109.667,89.8333 109.667,97.1667 109,104.5C 107.167,109 104,112.167 99.5,114C 89.9585,115.625 80.6252,114.625 71.5,111C 68.2776,108.044 65.9442,104.544 64.5,100.5C 68.8333,100.5 73.1667,100.5 77.5,100.5C 77.5,101.5 77.5,102.5 77.5,103.5C 82.544,103.827 87.544,103.494 92.5,102.5C 94.7471,101.755 96.5804,100.422 98,98.5C 98.4998,88.172 98.6665,77.8387 98.5,67.5C 98.5,66.5 98.5,65.5 98.5,64.5 Z"/></g>
<g><path style="opacity:0.627" fill="#a3736f" d="M 164.5,47.5 C 164.833,47.5 165.167,47.5 165.5,47.5C 165.833,48.1667 166.167,48.8333 166.5,49.5C 166.5,52.8333 166.5,56.1667 166.5,59.5C 165.5,59.5 164.5,59.5 163.5,59.5C 163.656,62.0661 163.322,64.5661 162.5,67C 157.656,74.3485 153.323,81.8485 149.5,89.5C 149.933,86.8344 150.433,84.1677 151,81.5C 154.513,75.4571 157.346,69.1237 159.5,62.5C 160.5,62.5 161.5,62.5 162.5,62.5C 162.292,57.3638 162.959,52.3638 164.5,47.5 Z"/></g>
<g><path style="opacity:0.98" fill="#fdb1ab" d="M 229.5,83.5 C 229.038,85.7567 228.038,87.7567 226.5,89.5C 225.775,93.5319 224.942,97.5319 224,101.5C 220.716,103.617 218.882,106.617 218.5,110.5C 216.5,110.5 214.5,110.5 212.5,110.5C 212.189,114.872 211.189,119.038 209.5,123C 204.13,125.269 198.464,126.435 192.5,126.5C 190.472,118.433 187.305,110.766 183,103.5C 183.075,99.7768 182.908,96.1102 182.5,92.5C 182.989,85.5024 186.656,81.0024 193.5,79C 196.377,78.2751 199.043,78.7751 201.5,80.5C 205.595,76.2867 210.595,73.9534 216.5,73.5C 222.871,74.3001 227.204,77.6334 229.5,83.5 Z"/></g>
<g><path style="opacity:0.537" fill="#7f5a57" d="M 98.5,67.5 C 98.6665,77.8387 98.4998,88.172 98,98.5C 96.5804,100.422 94.7471,101.755 92.5,102.5C 87.544,103.494 82.544,103.827 77.5,103.5C 77.5,102.5 77.5,101.5 77.5,100.5C 73.1667,100.5 68.8333,100.5 64.5,100.5C 63.8333,100.5 63.5,100.167 63.5,99.5C 68.0704,98.559 72.737,98.2256 77.5,98.5C 79.564,100.309 82.064,101.309 85,101.5C 88.5131,100.485 92.0131,99.4852 95.5,98.5C 95.4914,96.6916 95.9914,95.0249 97,93.5C 97.1704,84.657 97.6704,75.9903 98.5,67.5 Z"/></g>
<g><path style="opacity:0.143" fill="#090505" d="M 230.5,83.5 C 233.697,86.1892 236.197,89.5225 238,93.5C 238.667,97.8333 238.667,102.167 238,106.5C 234.855,113.456 231.189,120.123 227,126.5C 226.728,133.054 223.894,138.054 218.5,141.5C 212.162,140.552 205.828,138.552 199.5,135.5C 198.925,133.589 197.925,131.922 196.5,130.5C 201.2,131.891 205.533,131.225 209.5,128.5C 214.164,125.474 216.164,121.14 215.5,115.5C 217.463,114.04 219.296,112.373 221,110.5C 221.912,107.761 223.412,105.428 225.5,103.5C 227.596,96.9121 229.262,90.2455 230.5,83.5 Z"/></g>
<g><path style="opacity:0.341" fill="#906561" d="M 149.5,89.5 C 149.64,91.1238 148.973,92.2904 147.5,93C 140.994,95.3195 137.661,93.1528 137.5,86.5C 136.5,86.5 135.5,86.5 134.5,86.5C 134.5,85.5 134.5,84.5 134.5,83.5C 130.536,81.8548 126.536,80.1881 122.5,78.5C 121.833,78.5 121.5,78.1667 121.5,77.5C 123.738,76.4634 126.071,76.2967 128.5,77C 130.821,80.6798 134.154,83.1798 138.5,84.5C 140.798,88.9449 144.464,90.6116 149.5,89.5 Z"/></g>
<g><path style="opacity:0.02" fill="#ffafad" d="M 169.5,99.5 C 166.629,100.986 165.295,99.9864 165.5,96.5C 165.5,95.5 165.5,94.5 165.5,93.5C 169.068,93.7593 170.401,95.7593 169.5,99.5 Z"/></g>
<g><path style="opacity:0.858" fill="#cf928e" d="M 97.5,62.5 C 97.8333,63.1667 98.1667,63.8333 98.5,64.5C 98.5,65.5 98.5,66.5 98.5,67.5C 97.6704,75.9903 97.1704,84.657 97,93.5C 95.9914,95.0249 95.4914,96.6916 95.5,98.5C 92.0131,99.4852 88.5131,100.485 85,101.5C 82.064,101.309 79.564,100.309 77.5,98.5C 81.5138,98.6655 85.5138,98.4988 89.5,98C 91.1044,96.7635 92.771,95.5968 94.5,94.5C 95.31,84.2133 95.81,73.88 96,63.5C 96.3826,62.944 96.8826,62.6107 97.5,62.5 Z"/></g>
<g><path style="opacity:0.008" fill="#ff6358" d="M 165.5,96.5 C 165.295,99.9864 166.629,100.986 169.5,99.5C 170.306,100.728 171.306,101.728 172.5,102.5C 170.031,101.933 167.698,101.933 165.5,102.5C 164.427,100.347 164.427,98.3469 165.5,96.5 Z"/></g>
<g><path style="opacity:0.004" fill="#000000" d="M 172.5,103.5 C 173.822,106.368 175.656,109.035 178,111.5C 178.497,114.146 178.664,116.813 178.5,119.5C 175.893,118.684 173.893,117.017 172.5,114.5C 173.239,114.631 173.906,114.464 174.5,114C 173.619,113.292 172.953,112.458 172.5,111.5C 172.107,108.971 172.107,106.304 172.5,103.5 Z"/></g>
<g><path style="opacity:0.996" fill="#fdb3ad" d="M 143.5,100.5 C 148.441,101.721 153.441,103.054 158.5,104.5C 163.547,107.2 168.214,110.534 172.5,114.5C 173.893,117.017 175.893,118.684 178.5,119.5C 184.603,124.428 190.603,129.594 196.5,135C 197.448,135.483 198.448,135.649 199.5,135.5C 205.828,138.552 212.162,140.552 218.5,141.5C 225.528,144.353 231.528,148.687 236.5,154.5C 236.41,156.696 236.077,158.863 235.5,161C 237.519,167.624 238.019,174.457 237,181.5C 234.39,189.828 231.89,198.162 229.5,206.5C 227.704,207.793 226.037,209.293 224.5,211C 221.833,211.333 219.167,211.667 216.5,212C 200.668,211.606 185.002,211.772 169.5,212.5C 168.833,212.5 168.167,212.5 167.5,212.5C 165.5,212.5 163.5,212.5 161.5,212.5C 159.801,212.34 158.134,212.506 156.5,213C 150.899,217.839 144.899,222.173 138.5,226C 136.044,228.437 133.71,230.937 131.5,233.5C 125.655,234.392 119.822,235.392 114,236.5C 104.161,234.8 94.3272,233.134 84.5,231.5C 83.5836,231.543 82.9169,231.876 82.5,232.5C 81.1154,231.426 79.9487,230.093 79,228.5C 77.4538,223.955 75.4538,219.622 73,215.5C 73.7033,205.25 74.37,194.916 75,184.5C 77.0386,183.022 77.8719,181.022 77.5,178.5C 79.0499,175.758 80.8832,173.091 83,170.5C 84.177,167.101 85.3436,163.767 86.5,160.5C 88.737,155.654 90.9036,150.654 93,145.5C 94.8875,121.958 107.054,106.792 129.5,100C 134.22,99.2832 138.886,99.4498 143.5,100.5 Z"/></g>
<g><path style="opacity:0.02" fill="#ff6c60" d="M 165.5,103.5 C 169.435,104.064 170.768,106.064 169.5,109.5C 167.178,108.198 165.845,106.198 165.5,103.5 Z"/></g>
<g><path style="opacity:0.008" fill="#e38a82" d="M 172.5,102.5 C 172.5,102.833 172.5,103.167 172.5,103.5C 172.107,106.304 172.107,108.971 172.5,111.5C 170.973,111.573 169.973,110.906 169.5,109.5C 170.768,106.064 169.435,104.064 165.5,103.5C 165.5,103.167 165.5,102.833 165.5,102.5C 167.698,101.933 170.031,101.933 172.5,102.5 Z"/></g>
<g><path style="opacity:0.486" fill="#835c59" d="M 229.5,83.5 C 229.833,83.5 230.167,83.5 230.5,83.5C 229.262,90.2455 227.596,96.9121 225.5,103.5C 223.412,105.428 221.912,107.761 221,110.5C 219.296,112.373 217.463,114.04 215.5,115.5C 216.075,113.589 217.075,111.922 218.5,110.5C 218.882,106.617 220.716,103.617 224,101.5C 224.942,97.5319 225.775,93.5319 226.5,89.5C 228.038,87.7567 229.038,85.7567 229.5,83.5 Z"/></g>
<g><path style="opacity:0.914" fill="#d99792" d="M 218.5,110.5 C 217.075,111.922 216.075,113.589 215.5,115.5C 216.164,121.14 214.164,125.474 209.5,128.5C 204.859,129.127 200.193,129.46 195.5,129.5C 194.306,128.728 193.306,127.728 192.5,126.5C 198.464,126.435 204.13,125.269 209.5,123C 211.189,119.038 212.189,114.872 212.5,110.5C 214.5,110.5 216.5,110.5 218.5,110.5 Z"/></g>
<g><path style="opacity:0.986" fill="#fdb2ac" d="M 71.5,122.5 C 71.5,128.167 71.5,133.833 71.5,139.5C 71.6662,145.842 71.4995,152.175 71,158.5C 68.4107,163.119 64.5773,164.953 59.5,164C 55.5094,159.722 50.5094,157.722 44.5,158C 41.1537,155.332 37.487,154.832 33.5,156.5C 31.4131,155.415 30.0798,153.749 29.5,151.5C 29.5871,148.261 28.9205,145.261 27.5,142.5C 27.9504,138.768 29.6171,135.602 32.5,133C 35.7779,132.081 38.9446,130.914 42,129.5C 42.073,120.251 46.573,114.251 55.5,111.5C 62.479,112.818 67.8123,116.485 71.5,122.5 Z"/></g>
<g><path style="opacity:0.1" fill="#0c0707" d="M 73.5,124.5 C 76.7197,127.263 79.2197,130.597 81,134.5C 81.7846,138.477 82.9513,142.311 84.5,146C 84.0426,146.414 83.7093,146.914 83.5,147.5C 83.9942,152.071 84.9942,156.405 86.5,160.5C 85.3436,163.767 84.177,167.101 83,170.5C 80.8832,173.091 79.0499,175.758 77.5,178.5C 75.0116,179.886 72.3449,180.886 69.5,181.5C 58.2048,177.719 47.7048,172.386 38,165.5C 36.1552,163.133 34.9886,160.467 34.5,157.5C 39.8798,158.87 45.2132,160.203 50.5,161.5C 50.2865,163.144 50.6198,164.644 51.5,166C 56.8466,167.34 62.1799,167.506 67.5,166.5C 69.321,165.272 70.321,163.606 70.5,161.5C 71.5,161.5 72.5,161.5 73.5,161.5C 73.5,160.5 73.5,159.5 73.5,158.5C 74.5287,147.329 74.5287,135.996 73.5,124.5 Z"/></g>
<g><path style="opacity:0.349" fill="#6a4642" d="M 209.5,128.5 C 205.533,131.225 201.2,131.891 196.5,130.5C 195.833,130.5 195.5,130.167 195.5,129.5C 200.193,129.46 204.859,129.127 209.5,128.5 Z"/></g>
<g><path style="opacity:0.478" fill="#744f4d" d="M 71.5,122.5 C 72.5,122.833 73.1667,123.5 73.5,124.5C 74.5287,135.996 74.5287,147.329 73.5,158.5C 73.6661,152.824 73.4994,147.157 73,141.5C 72.7216,140.584 72.2216,139.918 71.5,139.5C 71.5,133.833 71.5,128.167 71.5,122.5 Z"/></g>
<g><path style="opacity:0.029" fill="#ff6b59" d="M 27.5,142.5 C 28.9205,145.261 29.5871,148.261 29.5,151.5C 26.7705,148.845 26.1038,145.845 27.5,142.5 Z"/></g>
<g><path style="opacity:0.151" fill="#060303" d="M 239.5,157.5 C 249.955,166.026 253.788,177.026 251,190.5C 250.649,204.367 245.149,215.533 234.5,224C 228.965,225.924 223.298,227.424 217.5,228.5C 206.309,226.687 195.142,225.021 184,223.5C 180.241,224.49 176.407,225.323 172.5,226C 163.521,232.304 154.521,238.637 145.5,245C 126.519,254.121 107.852,253.455 89.5,243C 87.2805,239.385 84.9472,235.885 82.5,232.5C 88.9792,234.328 95.3126,236.328 101.5,238.5C 112.846,240.558 124.013,239.558 135,235.5C 136.779,233.707 138.612,232.041 140.5,230.5C 143.663,228.189 146.997,226.022 150.5,224C 151.252,223.329 151.586,222.496 151.5,221.5C 155.35,221.167 158.35,219.334 160.5,216C 162.994,214.968 165.328,213.802 167.5,212.5C 168.167,212.5 168.833,212.5 169.5,212.5C 176.833,212.5 184.167,212.5 191.5,212.5C 192.429,213.315 193.429,214.148 194.5,215C 203.186,215.832 211.853,215.665 220.5,214.5C 220.863,213.817 221.196,213.15 221.5,212.5C 225.781,212.563 228.448,210.563 229.5,206.5C 231.144,206.19 232.144,205.19 232.5,203.5C 238.122,198.902 240.456,192.902 239.5,185.5C 239.5,184.5 239.5,183.5 239.5,182.5C 240.821,179.402 241.488,175.902 241.5,172C 241.3,167.369 240.634,162.869 239.5,158.5C 239.5,158.167 239.5,157.833 239.5,157.5 Z"/></g>
<g><path style="opacity:0.875" fill="#bd8681" d="M 71.5,139.5 C 72.2216,139.918 72.7216,140.584 73,141.5C 73.4994,147.157 73.6661,152.824 73.5,158.5C 73.5,159.5 73.5,160.5 73.5,161.5C 72.5,161.5 71.5,161.5 70.5,161.5C 70.321,163.606 69.321,165.272 67.5,166.5C 62.1799,167.506 56.8466,167.34 51.5,166C 50.6198,164.644 50.2865,163.144 50.5,161.5C 45.2132,160.203 39.8798,158.87 34.5,157.5C 33.8333,157.5 33.5,157.167 33.5,156.5C 37.487,154.832 41.1537,155.332 44.5,158C 50.5094,157.722 55.5094,159.722 59.5,164C 64.5773,164.953 68.4107,163.119 71,158.5C 71.4995,152.175 71.6662,145.842 71.5,139.5 Z"/></g>
<g><path style="opacity:0.475" fill="#87605c" d="M 239.5,158.5 C 240.634,162.869 241.3,167.369 241.5,172C 241.488,175.902 240.821,179.402 239.5,182.5C 239.256,174.304 239.256,166.304 239.5,158.5 Z"/></g>
<g><path style="opacity:0.894" fill="#d89893" d="M 236.5,154.5 C 237.833,155.167 238.833,156.167 239.5,157.5C 239.5,157.833 239.5,158.167 239.5,158.5C 239.256,166.304 239.256,174.304 239.5,182.5C 239.5,183.5 239.5,184.5 239.5,185.5C 238.503,185.47 237.836,185.97 237.5,187C 235.671,192.541 234.004,198.041 232.5,203.5C 232.144,205.19 231.144,206.19 229.5,206.5C 231.89,198.162 234.39,189.828 237,181.5C 238.019,174.457 237.519,167.624 235.5,161C 236.077,158.863 236.41,156.696 236.5,154.5 Z"/></g>
<g><path style="opacity:0.608" fill="#8e6461" d="M 239.5,185.5 C 240.456,192.902 238.122,198.902 232.5,203.5C 234.004,198.041 235.671,192.541 237.5,187C 237.836,185.97 238.503,185.47 239.5,185.5 Z"/></g>
<g><path style="opacity:0.576" fill="#996c69" d="M 229.5,206.5 C 228.448,210.563 225.781,212.563 221.5,212.5C 211.5,213.833 201.5,213.833 191.5,212.5C 184.167,212.5 176.833,212.5 169.5,212.5C 185.002,211.772 200.668,211.606 216.5,212C 219.167,211.667 221.833,211.333 224.5,211C 226.037,209.293 227.704,207.793 229.5,206.5 Z"/></g>
<g><path style="opacity:0.533" fill="#6b4b48" d="M 191.5,212.5 C 201.5,213.833 211.5,213.833 221.5,212.5C 221.196,213.15 220.863,213.817 220.5,214.5C 211.853,215.665 203.186,215.832 194.5,215C 193.429,214.148 192.429,213.315 191.5,212.5 Z"/></g>
<g><path style="opacity:0.369" fill="#563c3a" d="M 161.5,212.5 C 163.5,212.5 165.5,212.5 167.5,212.5C 165.328,213.802 162.994,214.968 160.5,216C 158.35,219.334 155.35,221.167 151.5,221.5C 154.833,218.5 158.167,215.5 161.5,212.5 Z"/></g>
<g><path style="opacity:0.863" fill="#cb908b" d="M 161.5,212.5 C 158.167,215.5 154.833,218.5 151.5,221.5C 151.586,222.496 151.252,223.329 150.5,224C 146.997,226.022 143.663,228.189 140.5,230.5C 137.366,231.241 134.366,232.241 131.5,233.5C 133.71,230.937 136.044,228.437 138.5,226C 144.899,222.173 150.899,217.839 156.5,213C 158.134,212.506 159.801,212.34 161.5,212.5 Z"/></g>
<g><path style="opacity:0.839" fill="#ab7975" d="M 82.5,232.5 C 82.9169,231.876 83.5836,231.543 84.5,231.5C 94.3272,233.134 104.161,234.8 114,236.5C 119.822,235.392 125.655,234.392 131.5,233.5C 129.572,235.474 127.239,236.974 124.5,238C 116.841,238.5 109.174,238.666 101.5,238.5C 95.3126,236.328 88.9792,234.328 82.5,232.5 Z"/></g>
<g><path style="opacity:0.349" fill="#372726" d="M 140.5,230.5 C 138.612,232.041 136.779,233.707 135,235.5C 124.013,239.558 112.846,240.558 101.5,238.5C 109.174,238.666 116.841,238.5 124.5,238C 127.239,236.974 129.572,235.474 131.5,233.5C 134.366,232.241 137.366,231.241 140.5,230.5 Z"/></g>
</svg>
